<svg xmlns="http://www.w3.org/2000/svg" fill="white" viewBox="0 0 512 512">
    <path
        d="M470.99 194.526v-12.08A47.577 47.577 0 0 0 436 136.632v-23.846a37.465 37.465 0 0 0 15-29.98v-44a37.542 37.542 0 0 0-37.5-37.5h-53a7.5 7.5 0 0 0-7.5 7.5v74a37.465 37.465 0 0 0 15 29.98v27.896a37.79 37.79 0 0 0-6.594 5.261l-47.96 48.004h-50.774a39.605 39.605 0 0 0-9.672 1.198v-2.692a37.365 37.365 0 0 0-26.153-35.743l-36.117-11.465a7.473 7.473 0 0 1-5.23-7.148v-15.538a49.311 49.311 0 0 0 14.966-35.402V12.524A12.539 12.539 0 0 0 187.941 0h-53.784a32.66 32.66 0 0 0-32.623 32.623v54.533a49.311 49.311 0 0 0 14.966 35.402v15.538a7.473 7.473 0 0 1-5.231 7.148L75.154 156.71A37.365 37.365 0 0 0 49 192.452v33.634H7.5a7.5 7.5 0 0 0-7.5 7.5v16.828a22.535 22.535 0 0 0 15 21.21V496.5A15.517 15.517 0 0 0 30.5 512h22a7.5 7.5 0 0 0 7.115-5.128l11.581-34.744A7.49 7.49 0 0 1 78.312 467h188.377a7.49 7.49 0 0 1 7.115 5.128l11.58 34.744A7.5 7.5 0 0 0 292.5 512h22a15.517 15.517 0 0 0 15.5-15.5V358.946h54.093L403.06 506.76a7.5 7.5 0 0 0 7.439 6.546h34a7.5 7.5 0 0 0 7.441-8.435l-18.339-145.925H444.5a67.576 67.576 0 0 0 67.5-67.5v-49a48.575 48.575 0 0 0-41.01-47.92ZM368 16.306h45.5a22.525 22.525 0 0 1 22.5 22.5v6.71l-.042.026a31.236 31.236 0 0 1-36.022-1.553l-31.665-24.543c-.088-.068-.181-.125-.271-.189Zm0 21.908 22.747 17.63A46.247 46.247 0 0 0 436 62.293v20.513a22.525 22.525 0 0 1-22.5 22.5h-23a22.525 22.525 0 0 1-22.5-22.5Zm53 81.337v15.396h-33.065a38.062 38.062 0 0 0-4.935.33V119.55a37.528 37.528 0 0 0 7.5.755h23a37.528 37.528 0 0 0 7.5-.755Zm-48.983 36.993a22.352 22.352 0 0 1 15.918-6.597h35.554a32.537 32.537 0 0 1 32.5 32.5v98a22.525 22.525 0 0 1-22.5 22.5H330v-31.323a22.535 22.535 0 0 0 15-21.21v-13.297a23.731 23.731 0 0 0 3.487-2.877l36.353-36.333a7.5 7.5 0 0 0-10.603-10.61l-11.836 11.83L346.584 182Zm-109.345 52.402h53.883a7.5 7.5 0 0 0 5.306-2.199l14.112-14.126 15.81 17.118-13.9 13.892a8.43 8.43 0 0 1-5.326 2.455h-93.38a24.717 24.717 0 0 1 23.495-17.14ZM116.534 32.623A17.643 17.643 0 0 1 134.157 15h51.31v37.578a38.15 38.15 0 0 1-19.529 1.54 38 38 0 0 1-10.516-4.02 50.384 50.384 0 0 0-13.954-5.2 50.418 50.418 0 0 0-24.934 1.772Zm0 29.966c8.02-3.277 15.416-4.279 22.033-2.974a36.304 36.304 0 0 1 10.072 3.863 52.202 52.202 0 0 0 14.349 5.347 51.373 51.373 0 0 0 22.478-.649v18.98a34.466 34.466 0 0 1-68.932 0Zm58.021 88.403a63.424 63.424 0 0 1-47.095-.023 22.452 22.452 0 0 0 4.04-12.873v-5.486a49.384 49.384 0 0 0 39 0v5.486a22.452 22.452 0 0 0 4.055 12.896ZM64 192.452a22.419 22.419 0 0 1 15.692-21.446l32.95-10.46a78.838 78.838 0 0 0 38.337 9.969c.56 0 1.126-.006 1.694-.018a79.034 79.034 0 0 0 36.687-9.95l32.948 10.46A22.42 22.42 0 0 1 238 192.451v10.134a39.703 39.703 0 0 0-14.274 23.5H208v-16.773a7.5 7.5 0 0 0-15 0v16.773h-84v-16.773a7.5 7.5 0 0 0-15 0v16.773H64ZM315 496.5a.5.5 0 0 1-.5.5h-16.594l-9.872-29.616A22.473 22.473 0 0 0 266.688 452H78.312a22.472 22.472 0 0 0-21.346 15.385L47.094 497H30.5a.5.5 0 0 1-.5-.5V272.914h285Zm7.5-238.586h-300a7.508 7.508 0 0 1-7.5-7.5v-9.328h214.842c.217.019.436.033.658.033H330v9.295a7.508 7.508 0 0 1-7.5 7.5Zm113.499 240.392h-18.9l-17.883-139.36h19.268ZM497 291.446a52.56 52.56 0 0 1-52.5 52.5H330v-26h103.49a37.542 37.542 0 0 0 37.5-37.5v-70.645A33.551 33.551 0 0 1 497 242.446Z">
    </path>
</svg>