<svg xmlns="http://www.w3.org/2000/svg" xmlns:xlink="http://www.w3.org/1999/xlink" width="500" zoomAndPan="magnify" viewBox="0 0 375 374.999991" height="500" preserveAspectRatio="xMidYMid meet" version="1.0"><defs><g/><clipPath id="d15226f661"><path d="M 78 183 L 129.941406 183 L 129.941406 192 L 78 192 Z M 78 183 " clip-rule="nonzero"/></clipPath><clipPath id="1c2f04e1ff"><path d="M 88 163 L 129.941406 163 L 129.941406 172 L 88 172 Z M 88 163 " clip-rule="nonzero"/></clipPath><clipPath id="8cd615bf08"><path d="M 109 173 L 129.941406 173 L 129.941406 182 L 109 182 Z M 109 173 " clip-rule="nonzero"/></clipPath><clipPath id="112cb6aad1"><path d="M 65.441406 183 L 75 183 L 75 192 L 65.441406 192 Z M 65.441406 183 " clip-rule="nonzero"/></clipPath><clipPath id="c1e39d8cf8"><path d="M 90 193 L 129.941406 193 L 129.941406 202 L 90 202 Z M 90 193 " clip-rule="nonzero"/></clipPath><clipPath id="808e7e9a55"><path d="M 94 202 L 129.941406 202 L 129.941406 211 L 94 211 Z M 94 202 " clip-rule="nonzero"/></clipPath></defs><g clip-path="url(#d15226f661)"><path fill="#eb7d24" d="M 152.207031 183.402344 L 110.691406 183.402344 L 108.917969 186.46875 L 104.816406 186.46875 L 103.042969 183.402344 C 101.511719 183.402344 82.359375 183.402344 80.832031 183.402344 L 78.539062 187.375 L 80.832031 191.347656 C 82.359375 191.347656 101.511719 191.347656 103.042969 191.347656 L 104.816406 188.28125 L 108.917969 188.28125 L 110.691406 191.347656 L 152.207031 191.347656 C 152.664062 188.722656 152.664062 186.035156 152.207031 183.402344 Z M 152.207031 183.402344 " fill-opacity="1" fill-rule="nonzero"/></g><g clip-path="url(#1c2f04e1ff)"><path fill="#eb7d24" d="M 95.210938 171.820312 L 96.984375 168.757812 L 101.085938 168.757812 L 102.859375 171.820312 L 146.628906 171.820312 C 138.402344 162.546875 129.175781 163.871094 118.050781 163.871094 L 102.859375 163.871094 L 101.085938 166.9375 L 96.984375 166.9375 L 95.210938 163.871094 L 90.625 163.871094 L 88.332031 167.84375 L 90.625 171.8125 L 95.210938 171.8125 Z M 95.210938 171.820312 " fill-opacity="1" fill-rule="nonzero"/></g><g clip-path="url(#8cd615bf08)"><path fill="#eb7d24" d="M 122.628906 176.707031 L 118.523438 176.707031 L 116.75 173.640625 L 112.164062 173.640625 L 109.871094 177.613281 L 112.164062 181.585938 L 116.75 181.585938 L 118.523438 178.519531 L 122.628906 178.519531 L 124.402344 181.585938 L 151.820312 181.585938 C 151.082031 178.683594 149.796875 175.996094 148.085938 173.632812 L 124.402344 173.632812 Z M 122.628906 176.707031 " fill-opacity="1" fill-rule="nonzero"/></g><g clip-path="url(#112cb6aad1)"><path fill="#eb7d24" d="M 67.734375 183.402344 L 65.441406 187.375 L 67.734375 191.355469 L 72.328125 191.355469 L 74.621094 187.375 L 72.328125 183.402344 Z M 67.734375 183.402344 " fill-opacity="1" fill-rule="nonzero"/></g><path fill="#eb7d24" d="M 96.777344 177.613281 L 99.070312 181.585938 L 103.664062 181.585938 L 105.957031 177.613281 L 103.664062 173.640625 L 99.070312 173.640625 Z M 96.777344 177.613281 " fill-opacity="1" fill-rule="nonzero"/><path fill="#eb7d24" d="M 83.40625 202.929688 L 81.105469 206.90625 L 83.40625 210.878906 L 87.992188 210.878906 L 90.285156 206.90625 L 87.992188 202.929688 Z M 83.40625 202.929688 " fill-opacity="1" fill-rule="nonzero"/><g clip-path="url(#c1e39d8cf8)"><path fill="#eb7d24" d="M 103.042969 196.230469 L 98.9375 196.230469 L 97.164062 193.167969 L 92.578125 193.167969 L 90.285156 197.136719 L 92.578125 201.109375 L 97.164062 201.109375 L 98.9375 198.042969 L 103.042969 198.042969 L 104.816406 201.109375 L 148.078125 201.109375 C 149.789062 198.746094 151.074219 196.058594 151.8125 193.160156 C 137.449219 193.160156 119.171875 193.160156 104.808594 193.160156 Z M 103.042969 196.230469 " fill-opacity="1" fill-rule="nonzero"/></g><g clip-path="url(#808e7e9a55)"><path fill="#eb7d24" d="M 114.796875 206 L 110.691406 206 L 108.917969 202.9375 C 104.78125 202.9375 100.636719 202.9375 96.496094 202.9375 L 94.203125 206.90625 L 96.496094 210.878906 C 100.636719 210.878906 104.773438 210.878906 108.917969 210.878906 L 110.691406 207.8125 L 114.796875 207.8125 L 116.570312 210.878906 C 128.316406 210.878906 138.191406 212.445312 146.628906 202.929688 L 116.570312 202.929688 Z M 114.796875 206 " fill-opacity="1" fill-rule="nonzero"/></g><g fill="#ffffff" fill-opacity="1"><g transform="translate(141.447579, 189.59179)"><g><path d="M 12.625 -19.625 C 14.738281 -19.625 16.34375 -19.078125 17.4375 -17.984375 C 18.53125 -16.890625 19.078125 -15.289062 19.078125 -13.1875 L 19.078125 -6.453125 C 19.078125 -4.335938 18.53125 -2.734375 17.4375 -1.640625 C 16.34375 -0.546875 14.738281 0 12.625 0 L 1.6875 0 L 1.6875 -19.625 Z M 14.015625 -13.1875 C 14.015625 -14.863281 13.175781 -15.703125 11.5 -15.703125 L 6.734375 -15.703125 L 6.734375 -3.921875 L 11.5 -3.921875 C 13.175781 -3.921875 14.015625 -4.765625 14.015625 -6.453125 Z M 14.015625 -13.1875 "/></g></g></g><g fill="#ffffff" fill-opacity="1"><g transform="translate(167.254333, 189.59179)"><g><path d="M 10.9375 0 L 0.84375 0 L 0.84375 -3.921875 L 3.359375 -3.921875 L 3.359375 -15.703125 L 0.84375 -15.703125 L 0.84375 -19.625 L 10.9375 -19.625 L 10.9375 -15.703125 L 8.40625 -15.703125 L 8.40625 -3.921875 L 10.9375 -3.921875 Z M 10.9375 0 "/></g></g></g><g fill="#ffffff" fill-opacity="1"><g transform="translate(184.64608, 189.59179)"><g><path d="M 18.515625 -0.421875 C 14.140625 0.046875 10.117188 0.28125 6.453125 0.28125 C 4.617188 0.28125 3.269531 -0.144531 2.40625 -1 C 1.550781 -1.863281 1.125 -3.210938 1.125 -5.046875 L 1.125 -14.015625 C 1.125 -15.984375 1.566406 -17.410156 2.453125 -18.296875 C 3.335938 -19.179688 4.765625 -19.625 6.734375 -19.625 L 16.828125 -19.625 L 16.828125 -15.703125 L 7.859375 -15.703125 C 6.734375 -15.703125 6.171875 -15.140625 6.171875 -14.015625 L 6.171875 -5.046875 C 6.171875 -4.617188 6.296875 -4.273438 6.546875 -4.015625 C 6.796875 -3.765625 7.140625 -3.640625 7.578125 -3.640625 C 9.722656 -3.640625 11.6875 -3.6875 13.46875 -3.78125 L 13.46875 -7.859375 L 9.8125 -7.859375 L 9.8125 -11.21875 L 18.515625 -11.21875 Z M 18.515625 -0.421875 "/></g></g></g><g fill="#ffffff" fill-opacity="1"><g transform="translate(209.891835, 189.59179)"><g><path d="M 10.9375 0 L 0.84375 0 L 0.84375 -3.921875 L 3.359375 -3.921875 L 3.359375 -15.703125 L 0.84375 -15.703125 L 0.84375 -19.625 L 10.9375 -19.625 L 10.9375 -15.703125 L 8.40625 -15.703125 L 8.40625 -3.921875 L 10.9375 -3.921875 Z M 10.9375 0 "/></g></g></g><g fill="#ffffff" fill-opacity="1"><g transform="translate(227.283581, 189.59179)"><g><path d="M 11.21875 0 L 6.171875 0 L 6.171875 -15.703125 L 0.28125 -15.703125 L 0.28125 -19.625 L 17.109375 -19.625 L 17.109375 -15.703125 L 11.21875 -15.703125 Z M 11.21875 0 "/></g></g></g><g fill="#ffffff" fill-opacity="1"><g transform="translate(250.285331, 189.59179)"><g><path d="M 5.1875 0 L -0.28125 0 L 7.15625 -19.625 L 12.765625 -19.625 L 20.1875 0 L 14.71875 0 L 13.46875 -3.5 L 6.453125 -3.5 Z M 7.71875 -7.15625 L 12.203125 -7.15625 L 9.953125 -13.75 Z M 7.71875 -7.15625 "/></g></g></g><g fill="#ffffff" fill-opacity="1"><g transform="translate(275.811594, 189.59179)"><g><path d="M 6.734375 -3.921875 L 16.96875 -3.921875 L 16.96875 0 L 1.6875 0 L 1.6875 -19.625 L 6.734375 -19.625 Z M 6.734375 -3.921875 "/></g></g></g><g fill="#ffffff" fill-opacity="1"><g transform="translate(142.752278, 207.160404)"><g><path d="M 5.09375 0 L 2.796875 0 L 2.796875 -7.125 L 0.125 -7.125 L 0.125 -8.90625 L 7.765625 -8.90625 L 7.765625 -7.125 L 5.09375 -7.125 Z M 5.09375 0 "/></g></g></g><g fill="#ffffff" fill-opacity="1"><g transform="translate(157.61143, 207.160404)"><g><path d="M 7.828125 0 L 0.765625 0 L 0.765625 -8.90625 L 7.828125 -8.90625 L 7.828125 -7.125 L 3.046875 -7.125 L 3.046875 -5.40625 L 6.796875 -5.40625 L 6.796875 -3.625 L 3.046875 -3.625 L 3.046875 -1.78125 L 7.828125 -1.78125 Z M 7.828125 0 "/></g></g></g><g fill="#ffffff" fill-opacity="1"><g transform="translate(172.661374, 207.160404)"><g><path d="M 7.625 -0.125 C 5.738281 0.0390625 4.171875 0.125 2.921875 0.125 C 2.085938 0.125 1.476562 -0.0664062 1.09375 -0.453125 C 0.707031 -0.847656 0.515625 -1.460938 0.515625 -2.296875 L 0.515625 -6.359375 C 0.515625 -7.242188 0.710938 -7.890625 1.109375 -8.296875 C 1.515625 -8.703125 2.160156 -8.90625 3.046875 -8.90625 L 7.625 -8.90625 L 7.625 -7.125 L 3.5625 -7.125 C 3.050781 -7.125 2.796875 -6.867188 2.796875 -6.359375 L 2.796875 -2.296875 C 2.796875 -2.097656 2.851562 -1.941406 2.96875 -1.828125 C 3.082031 -1.710938 3.226562 -1.65625 3.40625 -1.65625 C 3.582031 -1.65625 3.773438 -1.65625 3.984375 -1.65625 C 4.203125 -1.664062 4.425781 -1.671875 4.65625 -1.671875 C 4.882812 -1.679688 5.113281 -1.691406 5.34375 -1.703125 C 5.582031 -1.710938 5.882812 -1.726562 6.25 -1.75 C 6.613281 -1.78125 7.070312 -1.8125 7.625 -1.84375 Z M 7.625 -0.125 "/></g></g></g><g fill="#ffffff" fill-opacity="1"><g transform="translate(187.520526, 207.160404)"><g><path d="M 8.515625 0 L 6.234375 0 L 6.234375 -3.625 L 3.046875 -3.625 L 3.046875 0 L 0.765625 0 L 0.765625 -8.90625 L 3.046875 -8.90625 L 3.046875 -5.40625 L 6.234375 -5.40625 L 6.234375 -8.90625 L 8.515625 -8.90625 Z M 8.515625 0 "/></g></g></g><g fill="#ffffff" fill-opacity="1"><g transform="translate(203.778855, 207.160404)"><g><path d="M 8.515625 0 L 6.109375 0 L 3.046875 -5.34375 L 3.046875 0 L 0.765625 0 L 0.765625 -8.90625 L 3.171875 -8.90625 L 6.234375 -3.5625 L 6.234375 -8.90625 L 8.515625 -8.90625 Z M 8.515625 0 "/></g></g></g><g fill="#ffffff" fill-opacity="1"><g transform="translate(220.037184, 207.160404)"><g><path d="M 6.484375 -6.484375 C 6.484375 -6.992188 6.226562 -7.25 5.71875 -7.25 L 3.5625 -7.25 C 3.050781 -7.25 2.796875 -6.992188 2.796875 -6.484375 L 2.796875 -2.421875 C 2.796875 -1.910156 3.050781 -1.65625 3.5625 -1.65625 L 5.71875 -1.65625 C 6.226562 -1.65625 6.484375 -1.910156 6.484375 -2.421875 Z M 8.78125 -2.421875 C 8.78125 -1.523438 8.578125 -0.875 8.171875 -0.46875 C 7.765625 -0.0703125 7.117188 0.125 6.234375 0.125 L 3.046875 0.125 C 2.160156 0.125 1.515625 -0.0703125 1.109375 -0.46875 C 0.710938 -0.875 0.515625 -1.523438 0.515625 -2.421875 L 0.515625 -6.484375 C 0.515625 -7.378906 0.710938 -8.023438 1.109375 -8.421875 C 1.515625 -8.828125 2.160156 -9.03125 3.046875 -9.03125 L 6.234375 -9.03125 C 7.117188 -9.03125 7.765625 -8.828125 8.171875 -8.421875 C 8.578125 -8.023438 8.78125 -7.378906 8.78125 -6.484375 Z M 8.78125 -2.421875 "/></g></g></g><g fill="#ffffff" fill-opacity="1"><g transform="translate(236.295513, 207.160404)"><g><path d="M 3.046875 -1.78125 L 7.6875 -1.78125 L 7.6875 0 L 0.765625 0 L 0.765625 -8.90625 L 3.046875 -8.90625 Z M 3.046875 -1.78125 "/></g></g></g><g fill="#ffffff" fill-opacity="1"><g transform="translate(251.091065, 207.160404)"><g><path d="M 6.484375 -6.484375 C 6.484375 -6.992188 6.226562 -7.25 5.71875 -7.25 L 3.5625 -7.25 C 3.050781 -7.25 2.796875 -6.992188 2.796875 -6.484375 L 2.796875 -2.421875 C 2.796875 -1.910156 3.050781 -1.65625 3.5625 -1.65625 L 5.71875 -1.65625 C 6.226562 -1.65625 6.484375 -1.910156 6.484375 -2.421875 Z M 8.78125 -2.421875 C 8.78125 -1.523438 8.578125 -0.875 8.171875 -0.46875 C 7.765625 -0.0703125 7.117188 0.125 6.234375 0.125 L 3.046875 0.125 C 2.160156 0.125 1.515625 -0.0703125 1.109375 -0.46875 C 0.710938 -0.875 0.515625 -1.523438 0.515625 -2.421875 L 0.515625 -6.484375 C 0.515625 -7.378906 0.710938 -8.023438 1.109375 -8.421875 C 1.515625 -8.828125 2.160156 -9.03125 3.046875 -9.03125 L 6.234375 -9.03125 C 7.117188 -9.03125 7.765625 -8.828125 8.171875 -8.421875 C 8.578125 -8.023438 8.78125 -7.378906 8.78125 -6.484375 Z M 8.78125 -2.421875 "/></g></g></g><g fill="#ffffff" fill-opacity="1"><g transform="translate(267.349394, 207.160404)"><g><path d="M 8.390625 -0.1875 C 6.410156 0.0195312 4.585938 0.125 2.921875 0.125 C 2.085938 0.125 1.476562 -0.0664062 1.09375 -0.453125 C 0.707031 -0.847656 0.515625 -1.460938 0.515625 -2.296875 L 0.515625 -6.359375 C 0.515625 -7.242188 0.710938 -7.890625 1.109375 -8.296875 C 1.515625 -8.703125 2.160156 -8.90625 3.046875 -8.90625 L 7.625 -8.90625 L 7.625 -7.125 L 3.5625 -7.125 C 3.050781 -7.125 2.796875 -6.867188 2.796875 -6.359375 L 2.796875 -2.296875 C 2.796875 -2.097656 2.851562 -1.941406 2.96875 -1.828125 C 3.082031 -1.710938 3.238281 -1.65625 3.4375 -1.65625 C 4.40625 -1.65625 5.296875 -1.675781 6.109375 -1.71875 L 6.109375 -3.5625 L 4.453125 -3.5625 L 4.453125 -5.09375 L 8.390625 -5.09375 Z M 8.390625 -0.1875 "/></g></g></g><g fill="#ffffff" fill-opacity="1"><g transform="translate(283.226129, 207.160404)"><g><path d="M -0.25 -8.90625 L 2.15625 -8.90625 L 4.265625 -4.578125 L 6.359375 -8.90625 L 8.78125 -8.90625 L 5.40625 -2.359375 L 5.40625 0 L 3.109375 0 L 3.109375 -2.359375 Z M -0.25 -8.90625 "/></g></g></g><path stroke-linecap="round" transform="matrix(0, 0.75, -0.75, 0, 131.314947, 159.251942)" fill="none" stroke-linejoin="miter" d="M 1.497411 1.498055 L 73.830749 1.498055 " stroke="#eb7d24" stroke-width="3" stroke-opacity="1" stroke-miterlimit="4"/></svg>